<svg width="210" height="230" viewBox="0 0 210 230" fill="none" xmlns="http://www.w3.org/2000/svg">
<path d="M17.1976 10.9802C29.5802 17.417 42.4097 20.242 55.9733 20.045C64.2948 19.9242 72.6205 19.9622 80.942 20.0839C82.4393 20.1058 84.6194 20.3982 85.3088 21.386C91.6549 30.4791 97.742 39.7528 104.345 49.6335C101.642 49.7529 99.7269 49.9089 97.8116 49.911C77.3364 49.9345 56.861 49.8883 36.3862 49.9909C33.4893 50.0055 31.4977 49.4169 29.7644 46.7813C19.9942 31.925 10.0157 17.2056 0.128836 2.42564C-0.0260813 2.19405 0.081618 1.78679 0 0C6.06175 3.8911 11.4613 7.35715 17.1976 10.9802Z" fill="#FF7D31"/>
<path d="M136.58 208.372C112.785 172.699 89.2016 137.319 65 101.012C67.506 101.012 69.2068 101.012 70.9076 101.012C98.392 101.012 125.876 101.02 153.361 101.008C168.423 101.002 179.993 90.1017 180.061 75.8933C180.133 60.9502 169.265 50.1541 153.802 49.8934C147.974 49.7951 142.137 50.0033 136.316 49.765C134.775 49.7018 133.186 48.6477 131.8 47.7634C131.022 47.2666 130.598 46.1987 130.045 45.3674C124.628 37.2172 119.218 29.0627 113.468 20.4003C115.096 20.244 116.295 20.0315 117.494 20.0289C129.154 20.0034 140.814 19.9844 152.474 20.0181C185.73 20.1143 210.709 45.7878 209.916 79.0299C209.226 108 184.362 132.066 154.201 132.797C145.217 133.014 136.223 132.83 126.052 132.83C147.407 164.921 168.303 196.322 189.803 228.631C181.343 228.631 173.665 227.787 166.25 228.823C154.178 230.509 145.864 226.764 141.075 215.381C140.06 212.968 138.24 210.895 136.58 208.372Z" fill="#FCFCFC"/>
</svg>
