<?xml version="1.0" standalone="no"?>
<!DOCTYPE svg PUBLIC "-//W3C//DTD SVG 20010904//EN"
 "http://www.w3.org/TR/2001/REC-SVG-20010904/DTD/svg10.dtd">
<svg version="1.0" xmlns="http://www.w3.org/2000/svg"
 width="500.000000pt" height="252.000000pt" viewBox="0 0 500.000000 252.000000"
 preserveAspectRatio="xMidYMid meet">

<g transform="translate(0.000000,252.000000) scale(0.100000,-0.100000)"
fill="#000000" stroke="none">
<path d="M0 1260 l0 -1260 2500 0 2500 0 0 1260 0 1260 -2500 0 -2500 0 0
-1260z m416 991 c120 -50 191 -61 417 -62 l202 0 83 -127 c46 -70 88 -135 93
-145 9 -16 -11 -17 -345 -17 l-356 0 -81 122 c-45 67 -82 128 -82 135 0 7 -3
10 -6 8 -4 -2 -44 54 -91 124 l-85 127 88 -67 c49 -37 122 -81 163 -98z m1458
-81 c43 -11 101 -32 129 -47 67 -35 195 -163 230 -230 36 -68 67 -191 67 -268
0 -77 -31 -200 -67 -268 -43 -82 -155 -187 -243 -231 -105 -51 -186 -66 -367
-66 -84 0 -153 -2 -153 -5 0 -3 140 -215 310 -471 171 -256 310 -470 310 -475
0 -5 -85 -9 -193 -9 l-194 0 -426 640 -427 640 468 0 c527 0 533 1 603 71 51
51 70 91 76 158 10 110 -40 203 -136 253 -51 27 -60 28 -191 28 l-137 0 -96
145 c-54 80 -97 147 -97 150 0 3 103 5 228 5 195 0 240 -3 306 -20z m1218
-1122 l3 -172 89 82 c50 45 92 82 95 82 4 0 21 -19 40 -42 l34 -41 -44 -41
c-24 -23 -64 -58 -88 -80 l-43 -38 112 -113 112 -112 -49 -43 -48 -42 -107
113 -108 114 0 -102 0 -103 -65 0 -65 0 0 355 0 355 65 0 65 0 2 -172z m-893
-34 c98 -41 151 -124 151 -237 0 -92 -15 -139 -64 -194 -51 -58 -104 -82 -180
-83 -110 0 -181 38 -234 128 -24 42 -27 57 -27 137 0 73 4 98 22 131 38 72 98
116 188 138 29 7 105 -4 144 -20z m548 0 c144 -61 195 -269 100 -411 -79 -117
-253 -139 -374 -47 -74 57 -110 190 -80 295 18 60 72 131 119 155 66 34 164
37 235 8z m1540 -4 l43 -19 -15 -43 c-9 -24 -17 -48 -20 -55 -3 -9 -15 -7 -47
7 -75 34 -182 20 -165 -22 3 -8 36 -27 74 -42 137 -55 173 -93 173 -183 0 -44
-5 -58 -30 -87 -46 -51 -102 -69 -202 -64 -64 3 -94 10 -126 28 -23 13 -42 28
-42 32 0 5 11 31 25 59 l26 50 28 -20 c65 -47 182 -49 189 -5 4 27 -12 39 -95
74 -125 53 -167 111 -143 198 28 106 191 151 327 92z m-737 -171 c4 -137 9
-190 19 -202 18 -22 80 -22 125 0 l36 16 2 186 3 186 60 0 60 0 5 -205 5 -205
26 -3 26 -3 -15 -55 c-13 -45 -19 -54 -38 -54 -30 0 -67 15 -87 35 -15 14 -20
14 -66 -10 -98 -49 -214 -26 -262 52 -23 36 -24 48 -27 237 -3 157 -1 201 10
208 7 4 36 7 63 6 l50 -3 5 -186z m1044 -29 c34 -12 56 -59 56 -116 0 -39 -5
-51 -34 -80 -38 -38 -70 -43 -116 -19 -40 20 -50 43 -50 110 0 49 4 60 29 86
31 31 68 37 115 19z"/>
<path d="M2040 902 c-86 -43 -95 -197 -15 -260 19 -15 42 -22 74 -22 80 0 121
48 121 142 0 66 -25 115 -71 140 -42 23 -65 23 -109 0z"/>
<path d="M2590 907 c-41 -14 -80 -80 -80 -137 1 -45 31 -113 61 -134 37 -26
111 -21 147 9 78 65 57 223 -34 261 -39 17 -48 17 -94 1z"/>
</g>
</svg>
